<?xml version="1.0" encoding="utf-8"?>
<!-- Generator: Adobe Illustrator 22.0.0, SVG Export Plug-In . SVG Version: 6.00 Build 0)  -->
<svg version="1.1" id="Layer_1" xmlns="http://www.w3.org/2000/svg" xmlns:xlink="http://www.w3.org/1999/xlink" x="0px" y="0px"
	 viewBox="0 0 349.3 249.5" style="enable-background:new 0 0 349.3 249.5;" xml:space="preserve">
<style type="text/css">
	.st0{fill:none;stroke:#F8F8F8;}
	.st1{fill:none;stroke:#F0F0F0;}
	.st2{fill:none;stroke:#DDDDDD;}
	.st3{fill:#FAFAFA;stroke:#404040;stroke-miterlimit:19.2;}
	.st4{font-family:'BookAntiqua-BoldItalic';}
	.st5{font-size:21px;}
	.st6{fill:none;stroke:#404040;stroke-miterlimit:19.2;}
	.st7{fill:#404040;}
	.st8{fill:#FFFFFF;}
</style>
<g>
	<g>
		<g>
			<line class="st0" x1="0" y1="5.5" x2="350" y2="5.5"/>
			<line class="st0" x1="0" y1="10.5" x2="350" y2="10.5"/>
			<line class="st0" x1="0" y1="15.5" x2="350" y2="15.5"/>
			<line class="st0" x1="0" y1="20.5" x2="350" y2="20.5"/>
			<line class="st0" x1="0" y1="30.5" x2="350" y2="30.5"/>
			<line class="st0" x1="0" y1="35.5" x2="350" y2="35.5"/>
			<line class="st0" x1="0" y1="40.5" x2="350" y2="40.5"/>
			<line class="st0" x1="0" y1="45.5" x2="350" y2="45.5"/>
		</g>
		<g>
			<line class="st0" x1="5" y1="0.5" x2="5" y2="249.5"/>
			<line class="st0" x1="10" y1="0.5" x2="10" y2="249.5"/>
			<line class="st0" x1="15" y1="0.5" x2="15" y2="249.5"/>
			<line class="st0" x1="20" y1="0.5" x2="20" y2="249.5"/>
			<line class="st0" x1="30" y1="0.5" x2="30" y2="249.5"/>
			<line class="st0" x1="35" y1="0.5" x2="35" y2="249.5"/>
			<line class="st0" x1="40" y1="0.5" x2="40" y2="249.5"/>
			<line class="st0" x1="45" y1="0.5" x2="45" y2="249.5"/>
			<line class="st0" x1="55" y1="0.5" x2="55" y2="249.5"/>
			<line class="st0" x1="60" y1="0.5" x2="60" y2="249.5"/>
			<line class="st0" x1="65" y1="0.5" x2="65" y2="249.5"/>
			<line class="st0" x1="70" y1="0.5" x2="70" y2="249.5"/>
			<line class="st0" x1="80" y1="0.5" x2="80" y2="249.5"/>
			<line class="st0" x1="85" y1="0.5" x2="85" y2="249.5"/>
			<line class="st0" x1="90" y1="0.5" x2="90" y2="249.5"/>
			<line class="st0" x1="95" y1="0.5" x2="95" y2="249.5"/>
			<line class="st0" x1="105" y1="0.5" x2="105" y2="249.5"/>
			<line class="st0" x1="110" y1="0.5" x2="110" y2="249.5"/>
			<line class="st0" x1="115" y1="0.5" x2="115" y2="249.5"/>
			<line class="st0" x1="120" y1="0.5" x2="120" y2="249.5"/>
			<line class="st0" x1="130" y1="0.5" x2="130" y2="249.5"/>
			<line class="st0" x1="135" y1="0.5" x2="135" y2="249.5"/>
			<line class="st0" x1="140" y1="0.5" x2="140" y2="249.5"/>
			<line class="st0" x1="145" y1="0.5" x2="145" y2="249.5"/>
			<line class="st0" x1="155" y1="0.5" x2="155" y2="249.5"/>
			<line class="st0" x1="160" y1="0.5" x2="160" y2="249.5"/>
			<line class="st0" x1="165" y1="0.5" x2="165" y2="249.5"/>
			<line class="st0" x1="170" y1="0.5" x2="170" y2="249.5"/>
			<line class="st0" x1="180" y1="0.5" x2="180" y2="249.5"/>
			<line class="st0" x1="185" y1="0.5" x2="185" y2="249.5"/>
			<line class="st0" x1="190" y1="0.5" x2="190" y2="249.5"/>
			<line class="st0" x1="195" y1="0.5" x2="195" y2="249.5"/>
			<line class="st0" x1="205" y1="0.5" x2="205" y2="249.5"/>
			<line class="st0" x1="210" y1="0.5" x2="210" y2="249.5"/>
			<line class="st0" x1="215" y1="0.5" x2="215" y2="249.5"/>
			<line class="st0" x1="220" y1="0.5" x2="220" y2="249.5"/>
			<line class="st0" x1="230" y1="0.5" x2="230" y2="249.5"/>
			<line class="st0" x1="235" y1="0.5" x2="235" y2="249.5"/>
			<line class="st0" x1="240" y1="0.5" x2="240" y2="249.5"/>
			<line class="st0" x1="245" y1="0.5" x2="245" y2="249.5"/>
			<line class="st0" x1="255" y1="0.5" x2="255" y2="249.5"/>
			<line class="st0" x1="260" y1="0.5" x2="260" y2="249.5"/>
			<line class="st0" x1="265" y1="0.5" x2="265" y2="249.5"/>
			<line class="st0" x1="270" y1="0.5" x2="270" y2="249.5"/>
			<line class="st0" x1="280" y1="0.5" x2="280" y2="249.5"/>
			<line class="st0" x1="285" y1="0.5" x2="285" y2="249.5"/>
			<line class="st0" x1="290" y1="0.5" x2="290" y2="249.5"/>
			<line class="st0" x1="295" y1="0.5" x2="295" y2="249.5"/>
			<line class="st0" x1="305" y1="0.5" x2="305" y2="249.5"/>
			<line class="st0" x1="310" y1="0.5" x2="310" y2="249.5"/>
			<line class="st0" x1="315" y1="0.5" x2="315" y2="249.5"/>
			<line class="st0" x1="320" y1="0.5" x2="320" y2="249.5"/>
			<line class="st0" x1="330" y1="0.5" x2="330" y2="249.5"/>
			<line class="st0" x1="335" y1="0.5" x2="335" y2="249.5"/>
			<line class="st0" x1="340" y1="0.5" x2="340" y2="249.5"/>
			<line class="st0" x1="345" y1="0.5" x2="345" y2="249.5"/>
			<line class="st0" x1="0" y1="54.5" x2="350" y2="54.5"/>
			<line class="st0" x1="0" y1="59.5" x2="350" y2="59.5"/>
			<line class="st0" x1="0" y1="64.5" x2="350" y2="64.5"/>
			<line class="st0" x1="0" y1="69.5" x2="350" y2="69.5"/>
			<line class="st0" x1="0" y1="79.5" x2="350" y2="79.5"/>
			<line class="st0" x1="0" y1="84.5" x2="350" y2="84.5"/>
			<line class="st0" x1="0" y1="89.5" x2="350" y2="89.5"/>
			<line class="st0" x1="0" y1="94.5" x2="350" y2="94.5"/>
			<line class="st0" x1="0" y1="104.5" x2="350" y2="104.5"/>
			<line class="st0" x1="0" y1="109.5" x2="350" y2="109.5"/>
			<line class="st0" x1="0" y1="114.5" x2="350" y2="114.5"/>
			<line class="st0" x1="0" y1="119.5" x2="350" y2="119.5"/>
			<line class="st0" x1="0" y1="129.5" x2="350" y2="129.5"/>
			<line class="st0" x1="0" y1="134.5" x2="350" y2="134.5"/>
			<line class="st0" x1="0" y1="139.5" x2="350" y2="139.5"/>
			<line class="st0" x1="0" y1="144.5" x2="350" y2="144.5"/>
			<line class="st0" x1="0" y1="154.5" x2="350" y2="154.5"/>
			<line class="st0" x1="0" y1="159.5" x2="350" y2="159.5"/>
			<line class="st0" x1="0" y1="164.5" x2="350" y2="164.5"/>
			<line class="st0" x1="0" y1="169.5" x2="350" y2="169.5"/>
			<line class="st0" x1="0" y1="179.5" x2="350" y2="179.5"/>
			<line class="st0" x1="0" y1="184.5" x2="350" y2="184.5"/>
			<line class="st0" x1="0" y1="189.5" x2="350" y2="189.5"/>
			<line class="st0" x1="0" y1="194.5" x2="350" y2="194.5"/>
			<line class="st0" x1="0" y1="204.5" x2="350" y2="204.5"/>
			<line class="st0" x1="0" y1="209.5" x2="350" y2="209.5"/>
			<line class="st0" x1="0" y1="214.5" x2="350" y2="214.5"/>
			<line class="st0" x1="0" y1="219.5" x2="350" y2="219.5"/>
			<line class="st0" x1="0" y1="229.5" x2="350" y2="229.5"/>
			<line class="st0" x1="0" y1="234.5" x2="350" y2="234.5"/>
			<line class="st0" x1="0" y1="239.5" x2="350" y2="239.5"/>
			<line class="st0" x1="0" y1="244.5" x2="350" y2="244.5"/>
		</g>
		<g>
			<line class="st1" x1="25" y1="0.5" x2="25" y2="249.5"/>
			<line class="st1" x1="75" y1="0.5" x2="75" y2="249.5"/>
			<line class="st1" x1="125" y1="0.5" x2="125" y2="249.5"/>
			<line class="st1" x1="175" y1="0.5" x2="175" y2="249.5"/>
			<line class="st1" x1="225" y1="0.5" x2="225" y2="249.5"/>
			<line class="st1" x1="275" y1="0.5" x2="275" y2="249.5"/>
			<line class="st1" x1="325" y1="0.5" x2="325" y2="249.5"/>
			<line class="st1" x1="0" y1="74.5" x2="350" y2="74.5"/>
			<line class="st1" x1="0" y1="124.5" x2="350" y2="124.5"/>
			<line class="st1" x1="0" y1="174.5" x2="350" y2="174.5"/>
			<line class="st1" x1="0" y1="224.5" x2="350" y2="224.5"/>
		</g>
		<g>
			<line class="st2" x1="0" y1="0.5" x2="0" y2="249.5"/>
			<line class="st2" x1="50" y1="0.5" x2="50" y2="249.5"/>
			<line class="st2" x1="100" y1="0.5" x2="100" y2="249.5"/>
			<line class="st2" x1="150" y1="0.5" x2="150" y2="249.5"/>
			<line class="st2" x1="200" y1="0.5" x2="200" y2="249.5"/>
			<line class="st2" x1="250" y1="0.5" x2="250" y2="249.5"/>
			<line class="st2" x1="300" y1="0.5" x2="300" y2="249.5"/>
			<line class="st2" x1="350" y1="0.5" x2="350" y2="249.5"/>
			<line class="st2" x1="350" y1="0.5" x2="350" y2="249.5"/>
			<line class="st2" x1="0" y1="0.5" x2="350" y2="0.5"/>
			<line class="st2" x1="0" y1="99.5" x2="350" y2="99.5"/>
			<line class="st2" x1="0" y1="149.5" x2="350" y2="149.5"/>
			<line class="st2" x1="0" y1="199.5" x2="350" y2="199.5"/>
			<line class="st2" x1="0" y1="249.5" x2="350" y2="249.5"/>
			<line class="st2" x1="0" y1="49.5" x2="350" y2="49.5"/>
		</g>
		<g>
			<line class="st1" x1="0" y1="25.5" x2="350" y2="25.5"/>
		</g>
		<path class="st2" d="M350,49.5"/>
		<line class="st2" x1="0" y1="0.5" x2="350" y2="0.5"/>
		<path class="st2" d="M350,49.5"/>
		<path class="st2" d="M0,49.5"/>
	</g>
</g>
<g>
	<g>
		<polygon class="st3" points="50.3,199.5 150,50 250.3,199.5 		"/>
		<text transform="matrix(1 0 0 1 143.5282 140.4998)" class="st4 st5">L</text>
	</g>
	<g>
		<g>
			<line class="st6" x1="275.3" y1="50" x2="275.3" y2="199.5"/>
			<rect x="272" y="49" class="st7" width="6.5" height="1"/>
			<rect x="272" y="199" class="st7" width="6.5" height="1"/>
		</g>
		<g>
			<rect x="260.3" y="108.5" class="st8" width="30" height="30"/>
			<text transform="matrix(1 0 0 1 270.238 130.2897)" class="st4 st5">t</text>
		</g>
	</g>
	<g>
		<g>
			<line class="st6" x1="50.3" y1="224.5" x2="250.3" y2="224.5"/>
			<rect x="49.8" y="221.3" class="st7" width="1" height="6.5"/>
			<rect x="249.8" y="221.3" class="st7" width="1" height="6.5"/>
		</g>
		<rect x="135.3" y="209.5" class="st8" width="30" height="30"/>
		<text transform="matrix(1 0 0 1 144.9998 231.7197)" class="st4 st5">a</text>
	</g>
</g>
</svg>
